<svg width="24" height="24" viewBox="0 0 24 24" fill="none" xmlns="http://www.w3.org/2000/svg">
<path d="M11.3715 15.4717C10.8064 15.8955 10 15.4924 10 14.786V9.2146C10 8.50828 10.8064 8.10509 11.3715 8.52889L15.0857 11.3146C15.5429 11.6575 15.5429 12.3432 15.0857 12.686L11.3715 15.4717Z" fill="#5F75AA"/>
<path fill-rule="evenodd" clip-rule="evenodd" d="M12 3.71453C7.42677 3.71453 3.71429 7.42702 3.71429 12.0002C3.71429 16.5735 7.42677 20.286 12 20.286C16.5732 20.286 20.2857 16.5735 20.2857 12.0002C20.2857 7.42702 16.5732 3.71453 12 3.71453ZM2 12.0002C2 6.48024 6.48 2.00024 12 2.00024C17.52 2.00024 22 6.48024 22 12.0002C22 17.5202 17.52 22.0002 12 22.0002C6.48 22.0002 2 17.5202 2 12.0002Z" fill="#5F75AA"/>
</svg>
